<?xml version="1.0" standalone="no"?>
<!DOCTYPE svg PUBLIC "-//W3C//DTD SVG 20010904//EN"
 "http://www.w3.org/TR/2001/REC-SVG-20010904/DTD/svg10.dtd">
<svg version="1.0" xmlns="http://www.w3.org/2000/svg"
 width="283.000000pt" height="42.000000pt" viewBox="0 0 283.000000 42.000000"
 preserveAspectRatio="xMidYMid meet">

<g transform="translate(0.000000,42.000000) scale(0.100000,-0.100000)"
fill="#000000" stroke="none">
<path d="M2220 215 l0 -185 30 0 30 0 0 185 0 185 -30 0 -30 0 0 -185z"/>
<path d="M990 340 l0 -50 -38 0 c-84 0 -147 -67 -139 -148 8 -78 88 -131 159
-104 16 6 30 6 33 1 4 -5 17 -2 30 7 20 13 23 20 15 34 -6 10 -10 84 -10 164
l0 146 -25 0 c-23 0 -25 -3 -25 -50z m-5 -180 l0 -75 -32 -3 c-41 -4 -71 12
-84 45 -23 60 20 115 86 110 l30 -2 0 -75z"/>
<path d="M39 351 l-26 -6 55 -157 c48 -138 57 -158 76 -158 19 0 29 20 78 163
l55 163 -32 -4 c-32 -4 -33 -6 -60 -100 -15 -54 -31 -101 -35 -105 -4 -5 -24
41 -45 102 -20 61 -37 110 -38 110 -1 -1 -14 -4 -28 -8z"/>
<path d="M1641 334 c-26 -21 -31 -33 -31 -69 0 -36 5 -48 31 -69 17 -14 38
-26 47 -26 42 0 92 -21 92 -39 0 -50 -100 -63 -146 -20 l-25 24 3 -45 3 -45
52 -14 c96 -25 175 22 175 105 0 47 -33 80 -90 89 -58 10 -82 23 -82 45 0 39
82 46 125 10 10 -8 14 -3 17 26 4 31 1 37 -20 45 -13 5 -45 9 -72 9 -38 0 -55
-6 -79 -26z"/>
<path d="M403 276 c-43 -20 -73 -70 -73 -124 0 -81 89 -138 179 -116 26 7 37
15 39 31 3 21 1 22 -46 16 -53 -6 -112 16 -112 42 0 11 13 15 53 15 28 0 69 3
90 6 34 6 37 9 37 40 0 75 -91 124 -167 90z m102 -59 c21 -30 10 -37 -56 -37
-63 0 -75 13 -41 42 35 31 73 29 97 -5z"/>
<path d="M726 283 c-3 -4 -24 -6 -46 -5 l-40 3 0 -126 0 -125 30 0 30 0 0 94
c0 100 10 123 49 113 14 -3 20 2 24 19 2 13 2 26 -1 29 -8 7 -37 6 -46 -2z"/>
<path d="M1193 276 c-43 -20 -73 -70 -73 -124 0 -81 89 -138 179 -116 26 7 37
15 39 31 3 21 1 22 -46 16 -53 -6 -112 16 -112 42 0 11 13 15 53 15 28 0 69 3
90 6 34 6 37 9 37 40 0 75 -91 124 -167 90z m102 -59 c21 -30 10 -37 -56 -37
-63 0 -75 13 -41 42 35 31 73 29 97 -5z"/>
<path d="M1944 257 c-31 -28 -37 -42 -41 -83 -9 -91 39 -144 132 -144 95 0
153 103 110 194 -22 45 -59 66 -120 66 -37 0 -52 -6 -81 -33z m127 -36 c33
-27 33 -95 0 -122 -30 -24 -52 -24 -85 2 -20 16 -26 29 -26 59 0 30 6 43 26
59 33 26 55 26 85 2z"/>
<path d="M2393 280 c-24 -10 -27 -18 -17 -44 4 -11 11 -13 31 -5 52 19 103 6
103 -28 0 -8 -13 -13 -36 -13 -47 0 -99 -25 -112 -55 -16 -35 2 -80 37 -95 29
-11 158 -9 179 3 10 7 8 88 -4 166 -9 54 -44 81 -106 80 -29 0 -63 -4 -75 -9z
m122 -165 c0 -29 -2 -30 -45 -30 -39 0 -45 3 -48 23 -4 25 26 43 68 39 21 -2
25 -7 25 -32z"/>
<path d="M2660 160 l0 -130 30 0 30 0 0 89 c0 81 2 91 22 105 15 11 26 12 40
5 16 -9 18 -6 18 26 0 32 -3 35 -28 35 -15 0 -33 -5 -40 -12 -9 -9 -12 -9 -12
0 0 7 -13 12 -30 12 l-30 0 0 -130z"/>
</g>
</svg>
